<?xml version="1.0" encoding="UTF-8"?>
<svg id="Layer_2" data-name="Layer 2" xmlns="http://www.w3.org/2000/svg" viewBox="0 0 535.31 487.7">
  <defs>
    <style>
      .cls-1, .cls-2, .cls-3, .cls-4, .cls-5, .cls-6, .cls-7, .cls-8, .cls-9 {
        fill: none;
        stroke: #111;
      }

      .cls-1, .cls-2, .cls-6, .cls-7, .cls-8 {
        stroke-miterlimit: 10;
      }

      .cls-1, .cls-2, .cls-9 {
        stroke-width: 1.64px;
      }

      .cls-1, .cls-3, .cls-4, .cls-5, .cls-6, .cls-8, .cls-9 {
        stroke-linecap: round;
      }

      .cls-10 {
        fill: #f7af21;
      }

      .cls-11 {
        fill: #fff;
      }

      .cls-12 {
        fill: #ffa945;
      }

      .cls-13 {
        fill: #ffce5c;
      }

      .cls-14 {
        fill: #6b717f;
      }

      .cls-15 {
        fill: #818a91;
      }

      .cls-16 {
        fill: #9fa5aa;
      }

      .cls-17 {
        fill: #b5e4f9;
      }

      .cls-18 {
        fill: #9ea6ad;
      }

      .cls-19 {
        fill: #bac3cc;
      }

      .cls-20 {
        fill: #8da3b5;
      }

      .cls-21 {
        fill: #2eb8ff;
      }

      .cls-22 {
        fill: #b9c2ff;
      }

      .cls-23 {
        fill: #858b99;
      }

      .cls-24 {
        fill: #c2ebf9;
      }

      .cls-25 {
        fill: #41485b;
      }

      .cls-26 {
        fill: #111;
      }

      .cls-27 {
        fill: #556a7c;
      }

      .cls-28 {
        fill: #26ef4c;
      }

      .cls-29 {
        fill: #3d4851;
      }

      .cls-30 {
        fill: #39424f;
      }

      .cls-31 {
        fill: #4af42c;
      }

      .cls-32 {
        fill: #5dcde9;
      }

      .cls-33 {
        fill: #767f89;
      }

      .cls-34 {
        fill: #262f35;
      }

      .cls-3, .cls-4, .cls-5, .cls-9 {
        stroke-linejoin: round;
      }

      .cls-3, .cls-8 {
        stroke-width: 2.46px;
      }

      .cls-4, .cls-6, .cls-7 {
        stroke-width: 3.28px;
      }

      .cls-5 {
        stroke-width: 2px;
      }
    </style>
  </defs>
  <g id="Layer_2-2" data-name="Layer 2">
    <g>
      <circle class="cls-17" cx="172.44" cy="10.02" r="6.55"/>
      <path class="cls-14" d="M106.59,174.11H425.11c7.05,0,12.77,5.72,12.77,12.77v201.92c0,7.65-6.21,13.86-13.86,13.86H105.87c-7.65,0-13.86-6.21-13.86-13.86V188.69c0-8.05,6.54-14.59,14.59-14.59Z"/>
      <rect class="cls-24" x="106.3" y="188.62" width="304.79" height="200.57" rx="6.95" ry="6.95"/>
      <ellipse class="cls-26" cx="278.34" cy="351.43" rx="89.03" ry="10.13"/>
      <path class="cls-19" d="M300.19,318.47c1.95,5.68,1.47,11.6-.88,16.65l-4.01,5.9c-2.4,2.53-5.42,4.54-8.95,5.75-11.64,3.99-24.31-2.2-28.3-13.84"/>
      <path class="cls-20" d="M296.64,311.45c1.95,5.68,1.47,11.6-.88,16.65l-4.01,5.9c-2.4,2.53-5.42,4.54-8.95,5.75-11.64,3.99-24.31-2.2-28.3-13.84"/>
      <path class="cls-15" d="M304.44,188.62c-3.78-2.99-7.88-5.57-12.24-7.69l-7.38-3.05c-12.19-4.19-25.91-4.87-39.94-.79l-13.93,4.05-13.93,4.05c-51.06,14.84-64.86,80.68-24.04,114.76h0s19.95,16.67,19.95,16.67c34.86,29.11,87.42,15.29,104.09-25.89l3.23-9.48,6.44-20.14h0c4.94-15.47,4-30.7-1.14-43.99l-21.09-28.49Z"/>
      <path class="cls-27" d="M330.74,240.95c0,6.69-1.03,13.58-3.26,20.53l-6.44,20.14-3.23,9.49c-16.4,40.52-67.56,54.55-102.41,27.24,32.21,11.07,69.49-4.33,83.03-37.82l3.24-9.49,6.44-20.13c2.21-6.94,3.25-13.84,3.25-20.53,0-8.22-1.55-16.14-4.4-23.46l-21.09-28.48c-.07-.05-.15-.12-.22-.17l7.36,3.03c4.35,2.13,8.46,4.72,12.24,7.7l21.09,28.49c2.83,7.31,4.4,15.24,4.4,23.45Z"/>
      <path class="cls-11" d="M287.89,231.93c.34-3.76,0-7.65-1.12-11.49h0c-2.16-7.43-6.84-13.44-12.83-17.37l-9.47-4.17c-5.21-1.33-10.84-1.32-16.37,.29l-39.66,11.52c-16.55,4.81-26.07,22.12-21.26,38.68h0c4.81,16.55,22.12,26.07,38.68,21.26l18.86-5.48,25.53-13.71,17.65-19.51Z"/>
      <rect class="cls-14" x="227.36" y="402.66" width="76.18" height="37.63"/>
      <rect class="cls-25" x="227.36" y="402.66" width="76.18" height="8.05"/>
      <path class="cls-19" d="M284.68,272.9c-5.31,3.49-11.03,6.46-17.09,8.82l-16.84,6.55-8.49-21.83,4.09-1.59c30.75-11.97,52.69-39.54,57.44-72.19h0c.93-6.37,6.83-10.8,13.21-9.92h0c6.43,.89,10.91,6.85,9.98,13.28l-1.94,13.4c-3.23,22.38-14.54,42.39-31.24,56.62"/>
      <path class="cls-20" d="M327.83,195.93c0,.55-.03,1.12-.12,1.68l-1.94,13.39c-3.24,22.39-14.54,42.39-31.24,56.63l-9.12,6.85c-5.31,3.49-11.04,6.45-17.1,8.82l-16.84,6.56-3.28-8.42,10.72-4.17c6.06-2.36,11.78-5.32,17.09-8.82l9.13-6.85c16.68-14.23,28-34.24,31.23-56.63l1.94-13.39c.09-.57,.13-1.14,.13-1.7,0-2.01-.52-3.94-1.45-5.62,.24,.01,.5,.04,.75,.07,5.87,.82,10.1,5.84,10.1,11.6Z"/>
      <circle class="cls-33" cx="296.19" cy="109.29" r="13.13"/>
      <circle class="cls-27" cx="288.35" cy="109.29" r="13.13"/>
      <circle class="cls-33" cx="162.77" cy="96.71" r="12.57"/>
      <circle class="cls-27" cx="167.13" cy="97.42" r="12.57"/>
      <rect class="cls-15" x="160.97" y="61.51" width="130.23" height="100.43" rx="36.09" ry="36.09" transform="translate(10.99 -19.93) rotate(5.17)"/>
      <path class="cls-16" d="M292.47,103.22l-.66,7.27c1.81-19.86-12.92-37.4-32.89-39.2l-58.18-5.23c-19.97-1.8-37.64,12.83-39.44,32.68l-1.75,19.06,2.4-26.33c1.81-19.84,19.47-34.47,39.45-32.68l58.18,5.24c19.97,1.8,34.7,19.34,32.89,39.19Z"/>
      <path class="cls-27" d="M289.86,119.01c4.65,23.53-14.76,46.9-39.19,44.86,0,0-58.18-5.23-58.18-5.23-16.25-1.47-29.04-13.37-32.24-28.46,5.95,7.51,14.88,12.66,25.22,13.6,21.3,1.92,42.67,4.04,63.94,5.32,8.09,.49,16.24-2.24,22.78-6.9,8.04-5.72,13.83-14.15,17.67-23.2Z"/>
      <polyline class="cls-7" points="235.98 402.66 304.16 402.66 304.16 440.29 235.98 440.29"/>
      <line class="cls-4" x1="143.83" y1="174.11" x2="212.61" y2="174.11"/>
      <line class="cls-3" x1="165.98" y1="187.57" x2="207.56" y2="187.57"/>
      <polyline class="cls-4" points="227.36 410.59 227.36 402.66 295.54 402.66 295.54 440.29 227.36 440.29 227.36 419.54"/>
      <line class="cls-3" x1="401.53" y1="243.47" x2="401.53" y2="300.29"/>
      <line class="cls-3" x1="118.79" y1="312.89" x2="118.79" y2="369.7"/>
      <path class="cls-4" d="M304.3,188.62c-3.78-2.99-7.88-5.57-12.24-7.69"/>
      <path class="cls-6" d="M293.8,340.43c-2.4,2.53-5.42,4.54-8.95,5.75-11.64,3.99-24.31-2.2-28.3-13.84"/>
      <path class="cls-8" d="M243.85,264.31l-18.86,5.48c-16.55,4.81-33.87-4.71-38.68-21.26h0c-4.81-16.55,4.71-33.87,21.26-38.68l39.66-11.52c5.54-1.61,11.16-1.61,16.37-.29"/>
      <path class="cls-1" d="M259.56,338.15s19.99,4.4,40.33-13.84"/>
      <line class="cls-4" x1="221.77" y1="161.68" x2="227.45" y2="180.11"/>
      <circle class="cls-2" cx="171.07" cy="8.73" r="7.91"/>
      <rect class="cls-29" x="171.55" y="90.57" width="88.74" height="24.33" rx="12.16" ry="12.16" transform="translate(10.14 -19.05) rotate(5.17)"/>
      <path class="cls-34" d="M259.31,106.27c-.58,6.58-5.88,11.53-12.12,11.53-.36,0-.73-.02-1.1-.05l-64.14-6.05c-4.55-.44-8.29-3.41-10.02-7.47,1.64,1.16,3.59,1.92,5.71,2.11l64.15,6.05c.37,.03,.75,.05,1.12,.05,6.22,0,11.51-4.95,12.09-11.53,.19-2.23-.18-4.38-1.01-6.29,3.56,2.49,5.73,6.88,5.32,11.64Z"/>
      <path class="cls-7" d="M293.77,95.6l3.46,.31c7.32,.66,12.71,7.13,12.05,14.45-.66,7.32-7.13,12.71-14.45,12.05l-2.73-.25"/>
      <path class="cls-7" d="M163.11,83.77c-7.32-.66-13.78,4.73-14.45,12.05s4.73,13.78,12.05,14.45"/>
      <path class="cls-4" d="M175.65,65.36c6.34-4.81,14.43-7.35,22.98-6.58l64.69,5.86c18.22,1.65,31.65,17.75,30,35.97l-2.97,32.82c-.39,4.34-1.61,8.42-3.48,12.08"/>
      <path class="cls-4" d="M159.89,129.35c-.36-2.52-.44-5.12-.2-7.76l2.97-32.82c.67-7.44,3.76-14.08,8.41-19.22"/>
      <path class="cls-4" d="M280.77,153.86c-6.71,6.7-16.22,10.48-26.4,9.56l-64.69-5.86c-12.08-1.09-22.05-8.54-26.92-18.75"/>
      <path class="cls-26" d="M194.06,55.85c-.2,0-.4,0-.6-.02,.31,.03,0,0-.07-.02-.1-.02-.19-.05-.29-.07s-.19-.06-.28-.1c-.3-.1,.21,.12-.07-.03-.2-.11-.4-.23-.6-.35-.28-.17,.18,.16-.07-.05-.08-.07-.15-.13-.23-.2-.15-.14-.28-.29-.42-.44-.22-.24,.13,.2-.06-.07-.06-.08-.12-.17-.17-.25-.13-.2-.23-.41-.33-.62,.13,.27,0-.03-.03-.08-.03-.09-.06-.19-.09-.28s-.05-.19-.07-.29c-.01-.06-.06-.38-.02-.06-.02-.2-.03-.39-.03-.59,0-.1,.01-.2,.02-.3-.03,.33,.03-.1,.04-.16,.02-.1,.05-.2,.08-.29,.02-.06,.15-.33,0-.04,.06-.13,.13-.27,.21-.39,.05-.08,.1-.15,.15-.22,.16-.25-.18,.19,.02-.03,.14-.15,.28-.3,.44-.44,.05-.04,.29-.21,.03-.03,.07-.05,.15-.1,.22-.15,.15-.1,.31-.19,.47-.27,.08-.04,.16-.08,.24-.11-.3,.13-.02,.01,.04,0,.2-.07,.4-.13,.61-.17,.09-.02,.18-.03,.27-.05-.33,.07-.04,0,.03,0,.18-.02,.36-.02,.54-.02,.09,0,.18,0,.27,.01,.08,0,.36,.07,.03,0,.2,.04,.4,.08,.6,.14,.08,.03,.17,.06,.25,.09-.3-.11-.03-.01,.03,.02,.16,.08,.31,.18,.46,.27,.25,.16-.18-.18,.03,.03,.06,.06,.13,.12,.2,.18,.04,.04,.08,.08,.12,.13,.04,.04,.08,.09,.11,.13-.1-.13-.11-.15-.04-.04,.09,.15,.19,.29,.27,.45,.03,.06,.13,.33,.02,.02,.03,.08,.06,.16,.09,.24,.05,.17,.1,.33,.13,.5,.03,.13,.13,.25,0,.02,.04,.08,.02,.26,.03,.35,0,.21,0,.41-.01,.62,0,.07-.06,.36,0,.02-.02,.12-.04,.23-.07,.35-.05,.2-.1,.4-.18,.59-.02,.07-.15,.32,0,.03-.05,.1-.1,.21-.16,.31-.1,.18-.21,.35-.33,.51,.19-.26,.02-.03-.03,.02-.08,.09-.16,.17-.24,.25-.06,.06-.13,.11-.19,.17,.25-.22-.03,.02-.1,.06-.07,.05-.15,.09-.23,.13-.06,.03-.42,.19-.11,.06-.6,.24-1.08,.83-.86,1.51,.19,.58,.87,1.11,1.51,.86,2.04-.81,3.23-2.68,3.43-4.84,.19-2.01-.78-4.15-2.62-5.08s-4.17-.75-5.89,.39c-1.91,1.27-2.83,3.53-2.19,5.76,.7,2.46,3.05,4.49,5.68,4.39,.64-.02,1.26-.55,1.23-1.23s-.54-1.25-1.23-1.23h0Z"/>
      <path class="cls-26" d="M196.49,58.17c3.85-1.48,6.81-4.51,8.45-8.28,1.94-4.47,1.88-9.5,.75-14.17-1.92-7.93-6.86-14.95-13.34-19.83-3.69-2.78-7.92-4.82-12.4-5.98-1.53-.39-2.19,1.98-.65,2.37,7.04,1.81,13.3,5.97,17.85,11.64,4.84,6.03,8.27,14.67,6.39,22.44-.99,4.08-3.7,7.9-7.71,9.43-1.46,.56-.83,2.94,.65,2.37h0Z"/>
      <g>
        <circle class="cls-17" cx="297.65" cy="19.01" r="7.91"/>
        <path class="cls-26" d="M265.12,62.84c.03-1.39,.52-2.88,1.45-3.95s2.16-1.72,3.52-1.6c1.07,.1,2.34,.83,2.91,1.8,.19,.33,.22,.39,.3,.73,.07,.27,.1,.55,.05,.97-.06,.52-.34,1.13-.74,1.66-.97,1.3-2.64,2.24-4.13,3.03-1.4,.74-.16,2.86,1.24,2.12,1.73-.92,3.5-1.98,4.73-3.55,1.31-1.67,1.79-3.82,.88-5.8-.78-1.68-2.52-2.92-4.31-3.29-2.06-.43-4.07,.21-5.62,1.6-1.76,1.57-2.69,3.95-2.75,6.28-.04,1.58,2.42,1.58,2.46,0h0Z"/>
        <path class="cls-26" d="M265.54,61.27c-1.31-8.49,.67-17.38,5.46-24.5,4.36-6.49,10.99-11.34,18.45-13.66,1.51-.47,.86-2.84-.65-2.37-13.13,4.09-23.2,15.31-25.53,28.9-.7,4.09-.72,8.2-.09,12.29,.24,1.56,2.61,.9,2.37-.65h0Z"/>
        <circle class="cls-2" cx="297.65" cy="19.01" r="7.91"/>
      </g>
      <path class="cls-26" d="M210.76,131.54c6.83,3.19,15.38,1.67,20.57-3.85,1.08-1.15-.65-2.9-1.74-1.74-4.39,4.67-11.75,6.2-17.59,3.47-1.43-.67-2.68,1.45-1.24,2.12h0Z"/>
      <ellipse class="cls-12" cx="231.36" cy="62.73" rx="18.12" ry="14.34"/>
      <path class="cls-11" d="M249.48,62.73c0,7.92-2.42-5.75-18.12-7.31s-18.12,15.23-18.12,7.31,8.11-14.34,18.12-14.34,18.12,6.42,18.12,14.34Z"/>
      <line class="cls-2" x1="197.63" y1="151.09" x2="249.51" y2="155.53"/>
      <path class="cls-26" d="M69.95,226.57c-1.05-5.66,1.52-11.81,6.27-15.06,1.3-.89,.07-3.02-1.24-2.12-5.72,3.92-8.66,11.02-7.4,17.84,.29,1.55,2.66,.9,2.37-.65h0Z"/>
      <path class="cls-26" d="M62.85,221.17c-1.05-5.66,1.52-11.81,6.27-15.06,1.3-.89,.07-3.02-1.24-2.12-5.72,3.92-8.66,11.02-7.4,17.84,.29,1.55,2.66,.9,2.37-.65h0Z"/>
      <line class="cls-2" x1="300.71" y1="96.71" x2="298.42" y2="120.73"/>
      <path class="cls-26" d="M292.01,228.72c5.18,6.59,12.54,11.34,20.66,13.41,1.53,.39,2.19-1.98,.65-2.37-7.75-1.97-14.63-6.49-19.57-12.78-.98-1.24-2.71,.51-1.74,1.74h0Z"/>
      <path class="cls-26" d="M298.82,214.32c6.19,4.84,13.33,8.3,20.99,10.07,1.54,.36,2.2-2.02,.65-2.37-7.23-1.67-14.06-4.86-19.91-9.43-1.23-.96-2.99,.77-1.74,1.74h0Z"/>
      <path class="cls-26" d="M303.7,198.6c5.83,4.76,12.97,7.57,20.49,8.04,1.58,.1,1.57-2.36,0-2.46-6.82-.42-13.45-3-18.75-7.32-1.22-.99-2.97,.74-1.74,1.74h0Z"/>
      <path class="cls-26" d="M255.19,259.87c-.6,8.32,3.25,16.5,9.86,21.52,1.26,.96,2.49-1.18,1.24-2.12-5.92-4.51-9.17-12.01-8.64-19.4,.11-1.58-2.35-1.57-2.46,0h0Z"/>
      <rect class="cls-28" x="190.05" y="88.73" width="8.87" height="24.33" transform="translate(9.89 -17.12) rotate(5.17)"/>
      <rect class="cls-28" x="231.58" y="92.49" width="8.87" height="24.33" transform="translate(10.4 -20.85) rotate(5.17)"/>
      <path class="cls-3" d="M204.53,114.02l-22.9-2.07c-6.69-.61-11.62-6.52-11.02-13.21h0c.61-6.69,6.52-11.62,13.21-11.02l28.78,2.61"/>
      <path class="cls-3" d="M219.35,90.83l28.63,2.69c6.69,.61,11.62,6.52,11.02,13.21h0c-.61,6.69-6.52,11.62-13.21,11.02l-35.48-3.21"/>
      <rect class="cls-32" x="401.53" y="322.59" width="8.58" height="43.5" rx="4.29" ry="4.29"/>
      <rect class="cls-32" x="401.53" y="199.75" width="8.58" height="43.5" rx="4.29" ry="4.29"/>
      <rect class="cls-11" x="127.38" y="170.11" width="8.58" height="43.5" rx="4.29" ry="4.29" transform="translate(323.53 60.19) rotate(90)"/>
      <rect class="cls-32" x="158.66" y="316.87" width="8.58" height="43.5" rx="4.29" ry="4.29" transform="translate(473.5 127.03) rotate(81.43)"/>
      <path class="cls-3" d="M106.3,212.73v-18.58c0-3.63,2.94-6.57,6.57-6.57h44.79"/>
      <path class="cls-17" d="M243.99,243.69c.84,5.6,1.67,11.21,2.51,16.81,.19,1.25,1.89,2.13,3.03,1.72,14.44-5.17,25.78-15.92,35.4-27.53,.85-1.02,1-2.48,0-3.48-.87-.87-2.63-1.03-3.48,0-9.03,10.89-19.64,21.39-33.23,26.26l3.03,1.72c-.84-5.6-1.67-11.21-2.51-16.81-.2-1.31-1.86-2.04-3.03-1.72-1.41,.39-1.91,1.71-1.72,3.03h0Z"/>
      <path class="cls-8" d="M273.07,202.21c6,3.94,10.67,9.95,12.83,17.37h0c1.12,3.84,1.46,7.73,1.12,11.49"/>
      <ellipse class="cls-7" cx="230.46" cy="62.73" rx="18.12" ry="14.34"/>
      <rect class="cls-30" x="330.52" y="174.92" width="55.89" height="12.01" rx="6.01" ry="6.01"/>
      <rect class="cls-30" x="327.33" y="278.24" width="207.87" height="13.24" rx="6.62" ry="6.62" transform="translate(716.12 -146.41) rotate(90)"/>
      <rect class="cls-30" x="350.26" y="390.33" width="51.27" height="11.02" rx="5.51" ry="5.51"/>
      <rect class="cls-30" x="287.74" y="390.33" width="51.69" height="11.11" rx="5.55" ry="5.55"/>
      <path class="cls-11" d="M267.45,263.36c6.63-3.19,12.55-7.87,17.18-13.59,.63-.77,.76-1.85,0-2.61-.65-.65-1.98-.78-2.61,0-4.46,5.51-10.04,9.94-16.43,13.02-.9,.43-1.14,1.71-.66,2.52,.54,.92,1.62,1.1,2.52,.66h0Z"/>
      <path class="cls-26" d="M281.1,240.31c5,6.92,10.73,14.49,19.63,16.24,1.55,.3,2.21-2.07,.65-2.37-8.25-1.63-13.52-8.7-18.16-15.11-.92-1.27-3.05-.04-2.12,1.24h0Z"/>
      <path class="cls-26" d="M269.01,251.44c.9,8.79,5.29,17.03,12.23,22.53,1.23,.97,2.98-.76,1.74-1.74-6.41-5.08-10.68-12.63-11.51-20.79-.16-1.56-2.62-1.58-2.46,0h0Z"/>
      <path class="cls-18" d="M215.12,192.76c12.44-4.46,25.17-8.04,38.11-10.72,1.59-.33,2.5-2.2,2.1-3.69-.45-1.65-2.1-2.42-3.69-2.1-12.94,2.68-25.67,6.26-38.11,10.72-1.52,.55-2.55,2.04-2.1,3.69,.41,1.47,2.16,2.64,3.69,2.1h0Z"/>
      <rect class="cls-11" x="84.81" y="204.47" width="162.33" height="128.16" rx="7.5" ry="7.5" transform="translate(-38.16 27.73) rotate(-8.57)"/>
      <rect class="cls-4" x="84.73" y="204.47" width="162.33" height="128.16" rx="7.5" ry="7.5" transform="translate(-38.17 27.72) rotate(-8.57)"/>
      <line class="cls-9" x1="78.53" y1="232.96" x2="229.81" y2="210.45"/>
      <path class="cls-4" d="M437.88,230.51v159.65c0,6.9-5.59,12.49-12.49,12.49H118.79"/>
      <path class="cls-4" d="M235.98,174.11h175.11c6.9,0,12.49,5.59,12.49,12.49v144.46"/>
      <path class="cls-4" d="M376.33,174.11h49.07c6.9,0,12.49,5.59,12.49,12.49v33.93"/>
      <rect class="cls-23" x="88.33" y="364.98" width="22.32" height="12.19" rx="6.1" ry="6.1" transform="translate(470.56 271.59) rotate(90)"/>
      <rect class="cls-23" x="109.92" y="174.01" width="22.32" height="12.19" rx="6.1" ry="6.1" transform="translate(242.16 360.22) rotate(-180)"/>
      <rect class="cls-11" x="117.27" y="390.55" width="19.58" height="10.69" rx="5.35" ry="5.35" transform="translate(254.12 791.8) rotate(-180)"/>
      <path class="cls-4" d="M92,207.45v-20.86c0-6.9,5.59-12.49,12.49-12.49h30.62"/>
      <path class="cls-4" d="M423.58,341.29v48.87c0,6.9-5.59,12.49-12.49,12.49H104.49c-6.9,0-12.49-5.59-12.49-12.49v-42.78"/>
      <path class="cls-3" d="M329.78,389.19H112.87c-3.63,0-6.57-2.94-6.57-6.57v-38.27"/>
      <path class="cls-26" d="M219.35,175.77c1.93,0,1.93-3,0-3s-1.93,3,0,3h0Z"/>
      <path class="cls-6" d="M298.69,317.88c1.95,5.68,1.47,11.6-.88,16.65"/>
      <path class="cls-4" d="M226.57,325.54c33.64,16.29,75.71,1.21,90.29-34.83"/>
      <path class="cls-4" d="M284.67,177.88c-12.19-4.19-25.91-4.87-39.94-.79l-13.93,4.05-13.93,4.05c-10.28,2.99-19.06,8.05-26.18,14.5"/>
      <path class="cls-27" d="M266.87,289.09c13.48-4.89,25.87-12.52,36.23-22.43,2.9-2.77,5.62-5.72,8.16-8.82,1.03-1.25,1.23-3.02,0-4.24-1.06-1.06-3.21-1.26-4.24,0-8.61,10.5-19.31,19.12-31.43,25.25-3.35,1.7-6.79,3.18-10.32,4.46-1.52,.55-2.55,2.04-2.1,3.69,.4,1.47,2.16,2.65,3.69,2.1h0Z"/>
      <path class="cls-4" d="M247.34,263.85c30.75-11.97,51.69-38.54,56.44-71.19h0c.93-6.37,6.83-10.8,13.21-9.92h0c6.43,.89,10.91,6.85,9.98,13.28l-1.94,13.4c-3.23,22.38-14.54,42.39-31.24,56.62"/>
      <path class="cls-4" d="M284.68,272.9c-5.31,3.49-11.03,6.46-17.09,8.82l-15.84,6.55"/>
      <path class="cls-4" d="M320.09,281.23l6.44-20.14h0c4.94-15.47,4-30.7-1.14-43.99"/>
      <path class="cls-26" d="M238.19,189.59l1.39,4.93c.16,.57,.8,.97,1.38,.79s.96-.78,.79-1.38l-1.39-4.93c-.16-.57-.8-.97-1.38-.79s-.96,.78-.79,1.38h0Z"/>
      <path class="cls-26" d="M244.59,187.7c.46,1.64,.93,3.28,1.39,4.93,.16,.57,.8,.97,1.38,.79s.96-.78,.79-1.38c-.46-1.64-.93-3.28-1.39-4.93-.16-.57-.8-.97-1.38-.79s-.96,.78-.79,1.38h0Z"/>
      <path class="cls-26" d="M268.85,315.58c8.03-4.09,14.99-9.97,20.47-17.1,.5-.65,.09-1.67-.54-2.05-.77-.46-1.56-.1-2.05,.54-5.16,6.72-11.85,12.19-19.39,16.03-1.72,.88-.2,3.47,1.51,2.59h0Z"/>
      <path class="cls-26" d="M291.45,293.98c1.93,0,1.93-3,0-3s-1.93,3,0,3h0Z"/>
      <path class="cls-26" d="M255.12,157.42c1.93,0,1.93-3,0-3s-1.93,3,0,3h0Z"/>
      <circle class="cls-5" cx="126" cy="263.7" r="3.16"/>
      <path class="cls-21" d="M100.98,306.87c7.67-13.77,13.45-28.61,17.03-43.96l-8.4-2.31c-2.04,12.69-4.71,25.26-8.01,37.68-.94,3.53,3.13,7.03,6.4,4.92,10.52-6.8,13.74-19.4,15.86-30.99l-8.55-1.16c.98,10.04,.21,19.16-2.39,28.62-.49,1.79,.31,4.02,2,4.92,1.8,.95,3.76,.65,5.28-.68,6.73-5.9,10.67-14.44,11.24-23.33l-8.55,1.16c.22,1.41-.07-.84,.08,.58,.05,.44,.09,.87,.12,1.31,.06,.8,.09,1.6,.1,2.4s-.02,1.6-.07,2.4c-.03,.44-.06,.87-.11,1.31,0,.03-.19,1.4-.06,.58-.25,1.59-.58,3.15-1.03,4.7-.24,.84-.52,1.67-.83,2.49-.05,.13-.5,1.27-.21,.58-.17,.4-.36,.8-.54,1.19-.8,1.71-.82,3.9,.68,5.28,1.35,1.24,3.65,1.8,5.28,.68,6.86-4.74,11.08-12.05,11.81-20.34l-8.11,2.2c.14,.3,.24,.48,.06,.06,.13,.31,.24,.63,.35,.95,.17,.51,.31,1.03,.43,1.55,.07,.33,.13,.66,.19,.99-.08-.44-.03-.34,0,.04,.04,.61,.07,1.21,.06,1.82,0,.27-.02,.54-.03,.81,0,.08-.08,.91-.02,.43,.06-.54-.12,.63-.11,.62-.05,.26-.11,.53-.18,.79-.13,.52-.3,1.03-.47,1.54-.39,1.15,.22-.34-.1,.27-.16,.3-.3,.6-.45,.9-2.1,3.96,2.07,7.89,5.96,5.96s6.41-5.49,7.95-9.39c1.64-4.16,1.77-8.78,1.86-13.19l-8.55,1.16c.18,.72,.35,1.45,.49,2.18,.02,.1,.2,1.2,.13,.74-.06-.41,.08,.78,.08,.75,.13,1.41,.16,2.83,.1,4.24-.03,.67-.09,1.34-.16,2,.08-.7-.04,.26-.06,.39-.06,.37-.13,.73-.2,1.1-.3,1.46-.71,2.89-1.22,4.29-1.1,3.08,2.33,6.35,5.36,5.36,4.04-1.33,7.24-4.36,8.97-8.24,1.94-4.36,2.15-9.05,2.16-13.76l-8.55,1.16c.08,.34,.15,.68,.21,1.02,.05,.3,.13,.93,.06,.29,.08,.69,.13,1.39,.14,2.08,.01,.63,0,1.25-.04,1.88-.02,.35-.05,.69-.09,1.04-.07,.81,.07-.18-.04,.29-.31,1.3-.55,2.58-.99,3.84-.03,.09-.42,1.1-.23,.65,.17-.41-.3,.65-.29,.62-.3,.63-.64,1.24-1,1.84-.95,1.6-.73,3.99,.68,5.28,1.48,1.36,3.5,1.61,5.28,.68,6.47-3.39,10.63-10.55,10.5-17.83l-8.55,1.16c.08,.54,.09,.61,.03,.23,.04,.31,.07,.62,.1,.93,.06,.62,.1,1.24,.13,1.86,.05,1.08,.05,2.17,0,3.26-.03,.62-.07,1.24-.12,1.86-.01,.13-.15,1.4-.06,.69-.16,1.23-.42,2.45-.7,3.65-.99,4.16,4.12,7.39,7.28,4.24,4.52-4.52,7.08-10.71,7.08-17.1l-8.55,1.16c.28,.88,.52,1.76,.69,2.67,.01,.07,.19,1.38,.12,.66,.06,.53,.09,1.07,.11,1.6,.03,.92,0,1.84-.08,2.75-.03,.31-.03,.3,.02-.02-.03,.23-.07,.45-.11,.68-.1,.53-.21,1.05-.34,1.57-1.08,4.33,4.07,7.12,7.28,4.24s4.99-7.15,4.92-11.43c-.03-2.28-1.98-4.46-4.35-4.35s-4.39,1.91-4.35,4.35c0,.39-.03,.78-.03,1.18,0-.41,.09-.42,0,0-.08,.38-.17,.76-.29,1.14-.03,.1-.43,1.06-.2,.58s-.31,.55-.3,.53c-.16,.28-.36,.55-.53,.83-.23,.37,.37-.33-.18,.19-.29,.27-.55,.56-.84,.82l7.28,4.24c1.19-4.79,1.1-9.83-.4-14.54-.66-2.08-2.59-3.41-4.78-3.12s-3.77,2.09-3.77,4.28c0,.6-.02,1.2-.07,1.8,0,.09-.11,.91-.04,.41,.09-.57-.1,.5-.12,.6-.24,1.18-.59,2.33-1.03,3.44,.17-.42,.11-.25-.04,.06-.12,.24-.23,.48-.36,.72-.28,.53-.58,1.05-.91,1.55-.18,.28-.37,.55-.56,.82s-.34,.4-.05,.07c-.45,.5-.88,1-1.35,1.47l7.28,4.24c1.35-5.67,1.49-11.35,.62-17.1-.32-2.13-2.86-3.38-4.78-3.12-2.09,.28-3.82,2.1-3.77,4.28,0,.37,0,.73,0,1.1,0,.12-.07,1.15-.02,.52s-.07,.38-.09,.51c-.07,.36-.16,.72-.25,1.07-.16,.59-.36,1.17-.59,1.73,.38-.93-.12,.18-.18,.29-.14,.27-.29,.54-.45,.8s-.32,.52-.49,.78c-.06,.09-.66,.89-.31,.45s-.29,.33-.36,.41c-.24,.27-.5,.54-.76,.79-.22,.21-.45,.42-.68,.62-.3,.25-.63,.45-.13,.11-.61,.41-1.22,.8-1.88,1.14l5.96,5.96c3.63-6.11,4.68-13.36,3.15-20.27-.47-2.11-2.74-3.39-4.78-3.12s-3.77,2.09-3.77,4.28c0,1.83,0,3.66-.16,5.48-.01,.15-.18,1.4-.06,.65-.06,.37-.13,.75-.2,1.11-.18,.85-.46,1.65-.71,2.48-.14,.48,.32-.58-.06,.13-.17,.32-.33,.65-.51,.97s-.38,.62-.59,.92c-.63,.93,.56-.55-.22,.25-.25,.26-.51,.51-.76,.76-.62,.62,.58-.28-.24,.2-.26,.15-.5,.32-.76,.46-.98,.52,.37-.09-.44,.18l5.36,5.36c2.33-6.5,2.55-13.66,.85-20.33-.54-2.1-2.69-3.4-4.78-3.12s-3.73,2.09-3.77,4.28c-.04,1.87-.08,3.74-.26,5.61,0,0-.18,1.39-.07,.69-.07,.46-.15,.92-.25,1.37-.18,.85-.41,1.69-.7,2.51-.07,.2-.53,1.19-.12,.34-.16,.34-.32,.67-.5,1s-.37,.65-.57,.96c-.12,.18-.79,1.02-.19,.31-.44,.52-.94,.96-1.41,1.45-.24,.2-.18,.16,.17-.11-.15,.11-.3,.21-.45,.31-.36,.23-.74,.44-1.12,.63l5.96,5.96c3.27-6.17,3.31-13.29,.29-19.56-.8-1.65-3.2-2.56-4.92-2-1.94,.63-3.02,2.2-3.2,4.2-.03,.33-.14,1.14-.02,.36-.06,.38-.12,.75-.2,1.13-.15,.75-.35,1.48-.58,2.21-.12,.36-.25,.72-.37,1.08-.41,1.17,.38-.75-.15,.37-.32,.69-.67,1.37-1.05,2.03s-.81,1.29-1.25,1.92c-.52,.75,.41-.42-.26,.32-.25,.28-.5,.58-.75,.86-.47,.51-.97,1-1.49,1.47-.28,.25-.58,.5-.87,.74-.24,.19-.2,.16,.13-.1-.21,.15-.41,.3-.62,.44l5.96,5.96c3.6-7.67,4.73-15.89,3.42-24.25-.34-2.13-2.85-3.38-4.78-3.12-2.22,.3-3.64,2.09-3.77,4.28-.03,.52-.09,1.04-.13,1.57,.08-.98-.04,.28-.07,.4-.15,.9-.35,1.8-.59,2.68s-.52,1.76-.84,2.62c-.09,.25-.19,.49-.28,.73,.16-.38,.18-.42,.06-.14-.2,.41-.38,.83-.59,1.24-.82,1.63-1.78,3.22-2.9,4.66,.55-.7-.26,.29-.3,.34-.34,.4-.69,.79-1.05,1.17-.63,.67-1.3,1.29-1.99,1.9l7.28,4.24c2.75-10.03,3.71-20.58,2.7-30.93-.21-2.18-1.5-3.97-3.77-4.28-1.98-.27-4.39,.98-4.78,3.12-.97,5.27-2.1,10.5-4.02,15.52-.3,.78,.17-.36-.04,.12-.12,.27-.24,.54-.36,.82-.3,.64-.61,1.28-.95,1.9-.61,1.13-1.31,2.19-2.03,3.26-.46,.68,.28-.31-.05,.08-.19,.22-.36,.45-.55,.66-.41,.48-.85,.94-1.3,1.39s-.93,.86-1.42,1.27c-.88,.74,.72-.47-.24,.17-.3,.2-.59,.4-.89,.59l6.4,4.92c3.3-12.42,5.97-25,8.01-37.68,.36-2.24-.58-4.79-3.04-5.36-2.23-.51-4.8,.67-5.36,3.04-1.73,7.42-3.96,14.72-6.7,21.83-1.39,3.61-2.5,6.22-4.23,9.89-1.62,3.45-3.37,6.83-5.22,10.16-1.11,1.99-.55,4.84,1.56,5.96s4.77,.56,5.96-1.56h0Z"/>
      <polygon class="cls-5" points="147.39 294.06 139.65 284.35 131.91 274.65 127.86 284.98 124.09 280.25 111.72 264.75 104.47 283.21 97.23 301.67 116.84 298.72 136.45 295.76 136.41 295.71 147.39 294.06"/>
      <g>
        <line class="cls-5" x1="150.57" y1="243.66" x2="217.33" y2="233.92"/>
        <line class="cls-5" x1="151.78" y1="252.82" x2="218.54" y2="243.08"/>
        <line class="cls-5" x1="157.44" y1="292.39" x2="226.21" y2="281.65"/>
        <line class="cls-5" x1="155.49" y1="273.1" x2="222.26" y2="263.36"/>
        <line class="cls-5" x1="153.98" y1="262.85" x2="186.03" y2="258.23"/>
        <line class="cls-5" x1="156.13" y1="283.21" x2="190.19" y2="277.59"/>
      </g>
      <path class="cls-11" d="M110.68,287.23l2.52-6.82c.27-.74-.3-1.68-1.05-1.85-.85-.19-1.55,.26-1.85,1.05l-2.52,6.82c-.27,.74,.3,1.68,1.05,1.85,.85,.19,1.55-.26,1.85-1.05h0Z"/>
      <path class="cls-11" d="M107.3,292.95c1.93,0,1.93-3,0-3s-1.93,3,0,3h0Z"/>
      <path class="cls-31" d="M89.67,226.19c1.53-.81,2.95-1.89,4.15-3.14,.55-.57,.71-1.4,.4-2.13-.13-.32-.32-.57-.6-.78-.31-.24-.78-.47-1.18-.42-.6,.08-.99,.16-1.53,.41-.33,.15-.62,.39-.9,.63-.58,.51-.92,1.19-1.2,1.89-.44,1.08-.55,2.31-.53,3.46,.02,1.3,1.22,2.17,2.46,1.88,1.5-.36,2.97-1.01,4.24-1.9,.42-.3,.75-.65,.89-1.16,.13-.47,.07-1.09-.2-1.5s-.67-.78-1.16-.89-1.08-.1-1.5,.2c-.66,.47-1.36,.86-2.1,1.17l.46-.2c-.54,.22-1.1,.4-1.67,.54l2.46,1.88c0-.49,.02-.98,.08-1.47l-.07,.52c.07-.51,.19-1,.38-1.48l-.2,.46c.11-.26,.25-.51,.42-.74l-.3,.39c.11-.13,.23-.26,.36-.37l-.39,.3c.14-.11,.28-.19,.44-.26l-.46,.2c.15-.06,.3-.1,.46-.13l-.52,.07h.06c-.46-1.12-.92-2.22-1.38-3.33-.51,.54-1.07,1.03-1.65,1.49l.39-.3c-.66,.51-1.37,.96-2.1,1.35-.9,.48-1.25,1.8-.7,2.66,.59,.92,1.7,1.21,2.66,.7h0Z"/>
      <path class="cls-22" d="M100.43,224.78c1.53-.81,2.95-1.89,4.15-3.14,.55-.57,.71-1.4,.4-2.13-.13-.32-.32-.57-.6-.78-.31-.24-.78-.47-1.18-.42-.6,.08-.99,.16-1.53,.41-.33,.15-.62,.39-.9,.63-.58,.51-.92,1.19-1.2,1.89-.44,1.08-.55,2.31-.53,3.46,.02,1.3,1.22,2.17,2.46,1.88,1.5-.36,2.97-1.01,4.24-1.9,.42-.3,.75-.65,.89-1.16,.13-.47,.07-1.09-.2-1.5s-.67-.78-1.16-.89-1.08-.1-1.5,.2c-.66,.47-1.36,.86-2.1,1.17l.46-.2c-.54,.22-1.1,.4-1.67,.54l2.46,1.88c0-.49,.02-.98,.08-1.47l-.07,.52c.07-.51,.19-1,.38-1.48l-.2,.46c.11-.26,.25-.51,.42-.74l-.3,.39c.11-.13,.23-.26,.36-.37l-.39,.3c.14-.11,.28-.19,.44-.26l-.46,.2c.15-.06,.3-.1,.46-.13l-.52,.07h.06c-.46-1.12-.92-2.22-1.38-3.33-.51,.54-1.07,1.03-1.65,1.49l.39-.3c-.66,.51-1.37,.96-2.1,1.35-.9,.48-1.25,1.8-.7,2.66,.59,.92,1.7,1.21,2.66,.7h0Z"/>
      <circle class="cls-9" cx="92" cy="223.11" r="3.01"/>
      <circle class="cls-9" cx="101.75" cy="221.7" r="3.01"/>
      <path class="cls-11" d="M180.77,73.02s.48-.37,.25-.2c.15-.11,.3-.23,.45-.33,.3-.22,.62-.43,.93-.63,.63-.41,1.28-.78,1.95-1.12,.34-.17,.68-.32,1.02-.48,.16-.07,.17-.07,.03-.02,.09-.04,.17-.07,.26-.11,.17-.07,.35-.14,.53-.2,.7-.26,1.42-.48,2.15-.67s1.29-1.08,1.05-1.85-1.03-1.26-1.85-1.05c-3.27,.85-6.27,2.42-8.89,4.54-.61,.5-.55,1.61,0,2.12,.65,.6,1.47,.53,2.12,0h0Z"/>
      <path class="cls-11" d="M193.19,68.48c1.93,0,1.93-3,0-3s-1.93,3,0,3h0Z"/>
      <g>
        <rect class="cls-30" x="257.79" y="441.94" width="54.94" height="11.81" rx="5.9" ry="5.9"/>
        <g>
          <rect class="cls-10" x="18.17" y="455.4" width="516.7" height="30.66" rx="15.33" ry="15.33"/>
          <rect class="cls-13" x="1.64" y="455.4" width="516.7" height="30.66" rx="15.33" ry="15.33"/>
          <path class="cls-10" d="M516.9,470.89c0,4.24-1.72,8.07-4.49,10.84-2.78,2.78-6.61,4.49-10.84,4.49H15.53c-8.47,0-15.33-6.86-15.33-15.33,0-2.79,.75-5.41,2.06-7.66,2.64,4.58,7.6,7.66,13.27,7.66H501.57c4.23,0,8.06-1.72,10.84-4.49,.94-.94,1.76-2.01,2.43-3.17,1.31,2.25,2.06,4.87,2.06,7.66Z"/>
          <rect class="cls-11" x="16.94" y="455.4" width="48.44" height="11.01" rx="5.5" ry="5.5"/>
          <rect class="cls-11" x="69.45" y="455.4" width="12.34" height="11.01" rx="5.5" ry="5.5"/>
          <rect class="cls-14" x="209.17" y="440.29" width="110.76" height="15.11" rx="7.56" ry="7.56"/>
          <line class="cls-3" x1="85.39" y1="476.61" x2="28.58" y2="476.61"/>
          <line class="cls-3" x1="515.87" y1="465.23" x2="478.06" y2="465.23"/>
          <path class="cls-4" d="M367.36,486.07H16.97c-8.47,0-15.33-6.86-15.33-15.33h0c0-8.47,6.86-15.33,15.33-15.33H145.04"/>
          <path class="cls-4" d="M155.86,455.4H502.15c8.47,0,15.33,6.86,15.33,15.33h0c0,8.47-6.86,15.33-15.33,15.33h-123.44"/>
          <path class="cls-7" d="M480.31,455.4h38.03c8.47,0,15.33,6.86,15.33,15.33h0c0,8.47-6.86,15.33-15.33,15.33h-38.03"/>
          <path class="cls-7" d="M224.11,440.29h88.26c4.17,0,7.56,3.38,7.56,7.56h0c0,4.17-3.38,7.56-7.56,7.56h-88.26"/>
          <rect class="cls-7" x="207.93" y="440.29" width="103.38" height="15.11" rx="7.56" ry="7.56"/>
          <path class="cls-26" d="M472.67,466.74c1.93,0,1.93-3,0-3s-1.93,3,0,3h0Z"/>
          <path class="cls-13" d="M414.06,466.77c-2.2,2.32-2.21,6.37-.02,8.69,.73,.78,1.66,1.36,2.63,1.81,1.99,.92,4.28,1.29,6.39,.73s4-2.15,4.64-4.24c.94,1.84,3.17,2.61,5.22,2.84,2.63,.3,5.71-.23,7.11-2.48,.81-1.3,.89-2.95,.53-4.44s-1.12-2.85-1.9-4.16"/>
          <path class="cls-10" d="M106.94,477.69c-2.01-.97-2.93-3.49-2.53-5.69s1.9-4.05,3.65-5.43c2.33-1.83,5.27-2.99,8.23-2.82s5.89,1.76,7.32,4.36c1.26-2.75,3.3-4.42,6.12-5.47,3.42-1.28,7.22-1.84,10.73-.84s6.62,3.81,7.31,7.4c.94,4.91-.93,8.59-5.88,9"/>
        </g>
      </g>
      <g>
        <rect class="cls-11" x="377.38" y="188.02" width="9.46" height="201.22"/>
        <rect class="cls-11" x="368.55" y="188.02" width="4.73" height="201.22"/>
      </g>
      <path class="cls-3" d="M326,187.57h78.52c3.63,0,6.57,2.94,6.57,6.57v188.47c0,3.63-2.94,6.57-6.57,6.57h-63.22"/>
    </g>
  </g>
</svg>